<?xml version="1.0" encoding="utf-8"?>
<!-- Generator: Adobe Illustrator 24.3.0, SVG Export Plug-In . SVG Version: 6.00 Build 0)  -->
<svg version="1.1" id="f20e0c25-d928-42cc-98d1-13cc230663ea"
	 xmlns="http://www.w3.org/2000/svg" xmlns:xlink="http://www.w3.org/1999/xlink" x="0px" y="0px" viewBox="0 0 820.2 780.8"
	 style="enable-background:new 0 0 820.2 780.8;" xml:space="preserve">
<style type="text/css">
	.st0{opacity:0.5;}
	.st1{fill:#47E6B1;}
	.st2{opacity:0.5;fill:#4D8AF0;enable-background:new    ;}
	.st3{opacity:0.5;fill:#FDD835;enable-background:new    ;}
	.st4{opacity:0.5;fill:#F55F44;enable-background:new    ;}
	.st5{opacity:0.5;fill:#47E6B1;enable-background:new    ;}
	.st6{fill:#D4D4D4;}
	.st7{display:none;}
	.st8{fill:#FFFFFF;}
</style>
<g class="st0">
	<rect x="15.3" y="737" class="st1" width="3.8" height="21.3"/>
	<rect x="6.5" y="745.8" class="st1" width="21.3" height="3.8"/>
</g>
<g class="st0">
	<rect x="451.5" class="st1" width="3.8" height="21.3"/>
	<rect x="442.7" y="8.8" class="st1" width="21.3" height="3.8"/>
</g>
<path class="st2" d="M771.1,772.6c-2.1-0.9-3.3-3.3-2.6-5.6c0.1-0.2,0.1-0.3,0.1-0.5l0,0c0.1-1.3-0.9-2.4-2.2-2.4
	c-0.8,0-1.5,0.3-2,0.9l0,0c-0.1,0.1-0.2,0.3-0.3,0.5c-0.9,2.1-3.3,3.3-5.6,2.6c-0.2-0.1-0.3-0.1-0.5-0.1l0,0
	c-1.3-0.1-2.4,0.9-2.4,2.2c0,0.8,0.3,1.5,0.9,2l0,0c0.1,0.1,0.3,0.2,0.5,0.3c2.1,0.9,3.3,3.3,2.6,5.6c-0.1,0.2-0.1,0.3-0.1,0.5l0,0
	c-0.1,1.3,0.9,2.4,2.2,2.4c0.8,0,1.5-0.3,2-0.9l0,0c0.1-0.1,0.2-0.3,0.3-0.5c0.9-2.1,3.3-3.3,5.6-2.6c0.2,0.1,0.3,0.1,0.5,0.1l0,0
	c1.3,0.1,2.4-0.9,2.4-2.2c0-0.8-0.3-1.5-0.9-2l0,0C771.4,772.7,771.2,772.6,771.1,772.6z"/>
<path class="st3" d="M136.7,567.5c-2.1-0.9-3.3-3.3-2.6-5.6c0.1-0.2,0.1-0.3,0.1-0.5l0,0c0.1-1.3-0.9-2.4-2.2-2.4
	c-0.8,0-1.5,0.3-2,0.9l0,0c-0.1,0.1-0.2,0.3-0.3,0.5c-0.9,2.1-3.3,3.3-5.6,2.6c-0.2-0.1-0.3-0.1-0.5-0.1l0,0
	c-1.3-0.1-2.4,0.9-2.4,2.2c0,0.8,0.3,1.5,0.9,2l0,0c0.1,0.1,0.3,0.2,0.5,0.3c2.1,0.9,3.3,3.3,2.6,5.6c-0.1,0.2-0.1,0.3-0.1,0.5l0,0
	c-0.1,1.3,0.9,2.4,2.2,2.4c0.8,0,1.5-0.3,2-0.9l0,0c0.1-0.1,0.2-0.3,0.3-0.5c0.9-2.1,3.3-3.3,5.6-2.6c0.2,0.1,0.3,0.1,0.5,0.1l0,0
	c1.3,0.1,2.4-0.9,2.4-2.2c0-0.8-0.3-1.5-0.9-2l0,0C137,567.7,136.8,567.6,136.7,567.5z"/>
<path class="st3" d="M665.1,68.2c-2.1-0.9-3.3-3.3-2.6-5.6c0.1-0.2,0.1-0.3,0.1-0.5l0,0c0.1-1.3-0.9-2.4-2.2-2.4
	c-0.8,0-1.5,0.3-2,0.9l0,0c-0.1,0.1-0.2,0.3-0.3,0.4c-0.9,2.1-3.3,3.3-5.6,2.6c-0.2-0.1-0.3-0.1-0.5-0.1l0,0
	c-1.3-0.1-2.4,0.9-2.4,2.2c0,0.8,0.3,1.5,0.9,2l0,0c0.1,0.1,0.3,0.2,0.5,0.3c2.1,0.9,3.3,3.3,2.6,5.6c-0.1,0.2-0.1,0.3-0.1,0.5l0,0
	c-0.1,1.3,0.9,2.4,2.2,2.4c0.8,0,1.5-0.3,2-0.9l0,0c0.1-0.1,0.2-0.3,0.3-0.4c0.9-2.1,3.3-3.3,5.6-2.6c0.2,0.1,0.3,0.1,0.5,0.1l0,0
	c1.3,0.1,2.4-0.9,2.4-2.2c0-0.8-0.3-1.5-0.9-2l0,0C665.4,68.3,665.2,68.2,665.1,68.2z"/>
<circle class="st4" cx="812.6" cy="314.5" r="7.5"/>
<circle class="st4" cx="230.7" cy="746.7" r="7.5"/>
<circle class="st4" cx="735.3" cy="477.2" r="7.5"/>
<circle class="st2" cx="87.1" cy="96.3" r="7.5"/>
<circle class="st5" cx="7.5" cy="301.8" r="7.5"/>
<g>
	<path class="st6" d="M724,390.4c0,100.7-47.4,190.3-121.1,247.7c-53.2,41.5-120.1,66.2-192.8,66.2c-93.1,0-176.8-40.6-234.2-105.1
		l-0.1,0.1c-49.5-55.5-79.6-128.7-79.6-208.9c0-173.3,140.5-313.9,313.9-313.9S724,217.1,724,390.4z"/>
	<path class="st7" d="M307.7,135.6h-11.8c-1.5,0-2.9,0.3-4.3,0.8c-6.9,2.2-12.1,9.7-12.1,18.5v8.1v20.9v10.9c0,2,0.3,3.9,0.8,5.7
		c2.1,7.8,8.2,13.6,15.6,13.6h11.8c9.1,0,16.4-8.6,16.4-19.3v-10.9v-20.9v-8.1C324.1,144.3,316.7,135.6,307.7,135.6z M540.7,135.6
		h-11.8c-9.1,0-16.4,8.6-16.4,19.3v8.1v20.9v10.9c0,10.7,7.3,19.3,16.4,19.3h11.8c9.1,0,16.4-8.6,16.4-19.3v-10.9v-20.9v-8.1
		C557.1,144.3,549.8,135.6,540.7,135.6z M601.2,183.9h-29.3v10.9c0,18.8-14,34.1-31.2,34.1h-11.8c-17.2,0-31.2-15.3-31.2-34.1v-10.9
		H338.8v10.9c0,18.8-14,34.1-31.2,34.1h-11.8c-17.2,0-31.2-15.3-31.2-34.1v-10.9h-25.5c-16.3,0-29.5,12.4-29.5,27.6v367.9
		c0,15.3,13.2,27.6,29.5,27.6h362c16.3,0,29.5-12.3,29.5-27.6V211.6C630.6,196.3,617.5,183.9,601.2,183.9z M592,566.5l-344.8-0.1
		V269.8H592V566.5z"/>
	<path class="st8" d="M239.1,602c-13.5,0-24.5-10.1-24.5-22.6V211.6c0-12.5,11-22.6,24.5-22.6h20.5v5.9c0,21.5,16.2,39.1,36.2,39.1
		h11.8c19.9,0,36.2-17.5,36.2-39.1v-5.9h148.9v5.9c0,21.5,16.2,39.1,36.2,39.1h11.8c19.9,0,36.2-17.5,36.2-39.1v-5.9h24.3
		c6.6,0,12.8,2.4,17.4,6.7c4.5,4.3,7,9.9,7,15.9v367.9c0,12.5-11,22.6-24.5,22.6H239.1z M242.2,571.4l354.8,0.1V264.8H242.2V571.4z
		 M528.9,209.1c-6.3,0-11.4-6.4-11.4-14.3v-39.9c0-7.9,5.1-14.3,11.4-14.3h11.8c6.3,0,11.4,6.4,11.4,14.3v39.9
		c0,7.9-5.1,14.3-11.4,14.3H528.9z M295.8,209.1c-4.9,0-9.2-4-10.7-9.8c-0.4-1.7-0.7-3.1-0.7-4.5v-39.9c0-6.5,3.5-12.1,8.6-13.8
		c1.1-0.4,2-0.5,2.8-0.5h11.8c6.3,0,11.4,6.4,11.4,14.3v39.9c0,7.9-5.1,14.3-11.4,14.3H295.8z"/>
</g>
<g>
	<path class="st8" d="M547.3,551.2c-16.3-19.3-45.6-34.1-80.9-40.1c-3.5-20.7-9.6-30.4-9.8-30.7c2.7-1.3,5.9-1.7,9.7-0.9
		c4.5,1,7.6,3.4,9.5,6.5c0.5,0.9,1.9,0.6,2.1-0.4c0.2-1.5,0.2-3.2-0.4-5c-1.3-4.5-4.8-8.3-9.4-9.3c-3-0.6-6-0.1-8.5,1.2
		c2.3-2,5.3-3.7,8.8-4.8c7.7-2.5,14.3-1.3,19.5,2.1c0.9,0.6,2-0.3,1.7-1.3c-0.9-3.1-2.6-6.2-5.8-9c-5.4-4.7-12.8-6.8-19.6-4.5
		c-2.2,0.7-4.2,1.8-5.9,3.1c0.1-0.2,0.3-0.3,0.4-0.5c5-5.9,11-8.4,16.9-8.5c1.3,0,1.9-1.7,0.9-2.5c-2.1-1.7-4.7-3.1-8-3.8
		c-7.6-1.6-15.5,0.7-20.3,6.7c-1.7,2.2-2.9,4.6-3.6,7.1c-2-1.6-4.4-2.9-7.1-3.7c-7.4-2.1-15.2,0.7-20.4,6.4c-2.2,2.5-3.5,5-4.2,7.6
		c-0.4,1.3,1.2,2.4,2.3,1.6c4.9-3.3,11.2-4.6,18.6-2.8c0.2,0.1,0.4,0.1,0.6,0.2c-2.2-0.1-4.4,0.2-6.6,0.9
		c-6.8,2.1-11.7,8.1-13.3,15.1c-0.9,4-0.6,7.4,0.5,10.4c0.4,1.1,1.9,1.1,2.3,0c2.3-5.6,7-10.4,14.6-12.8c3.5-1.1,6.9-1.5,10-1.2
		c-2.8,0.4-5.6,1.7-7.6,4c-3.2,3.5-3.8,8.6-2.2,13.1c0.6,1.8,1.6,3.2,2.6,4.3c0.7,0.7,2,0.2,1.9-0.8c-0.3-3.6,0.8-7.3,3.9-10.8
		c2.4-2.7,5.1-4.4,7.8-4.8l0,0c0,0,4.3,10.7,4.9,26.1c-7.2-0.7-14.7-1.2-22.3-1.2c-18.6,0-36.2,2.3-52.2,6.5
		c3.3-72.2,47.8-120.1,47.8-120.3v0c5.5,3.6,10.1,9.2,13.1,17c3.9,10.1,3.2,19.3-0.3,26.8c-1,2.2,1.4,4.5,3.5,3.4
		c3.3-1.5,6.4-3.8,9.3-7.2c7.1-8.4,9.9-20.1,5.9-30.4c-2.6-6.7-7.5-11.8-13.4-15c6.9,1.9,13.9,5.4,20.7,10.8
		c14.5,11.5,20.8,25.7,21.3,39.9c0.1,2.7,3.4,3.8,5.1,1.8c4.7-5.6,8.3-12.8,9.5-22.3c2.2-16.5-3.5-33.6-16.6-43.9
		c-4.2-3.3-8.9-5.8-13.7-7.4c0.5,0,1,0.1,1.5,0.1c17.7,2.1,30.3,10.3,38.2,21.4c1.9,2.6,6.1,1.5,6.4-1.7c0.6-6.2-0.1-12.8-3-20.1
		c-6.6-16.7-21.3-29.2-39.3-30.7c-6.4-0.5-12.7,0.3-18.5,2.2c0.6-6.1-0.1-12.3-2-18.5c-5.5-17.1-21-28.6-38.8-31.3
		c-7.9-1.2-14.7-0.3-20.7,1.8c-2.8,1-3,5.1-0.2,6.2c12.8,5.2,23.8,15.6,29.9,32.6c0.2,0.5,0.3,0.9,0.5,1.4
		c-2.7-4.3-6.1-8.3-10.3-11.7c-13-10.5-30.9-12.1-46.5-6.3c-9.3,3.5-15.5,8.8-20,14.9c-1.4,2,0.3,4.6,2.6,4.1
		c14.1-2.9,29.6-0.1,44.3,11.6c6.8,5.4,11.8,11.4,15.3,17.8c-4.4-5-10.5-8.6-17.7-9.6c-10.9-1.6-21.7,3.7-28.2,12.6
		c-2.6,3.5-4.1,7.1-4.9,10.6c-0.5,2.4,2.3,4.2,4.2,2.7c6.6-5.1,15.3-7.8,26-6.3c8.8,1.2,15.5,4.8,20.4,9.8
		c-0.9,0.7-54.5,40.8-89.6,163.3c-2.1,2-4.1,4.2-6,6.3c-3.6,4.3-0.6,10.8,5,10.8h223C547.7,561.9,550.8,555.4,547.3,551.2z"/>
</g>
</svg>
